<svg width="20" height="21" viewBox="0 0 20 21" fill="none" xmlns="http://www.w3.org/2000/svg">
<g clip-path="url(#clip0_1_343)">
<path d="M19.7709 9.94711C19.7706 9.94687 19.7704 9.9466 19.7702 9.94636L15.688 5.88387C15.3821 5.57953 14.8875 5.58067 14.5831 5.88653C14.2787 6.19235 14.2799 6.68699 14.5857 6.99137L17.3265 9.71886H0.78125C0.349766 9.71886 0 10.0686 0 10.5001C0 10.9316 0.349766 11.2814 0.78125 11.2814H17.3264L14.5857 14.0089C14.2799 14.3132 14.2788 14.8079 14.5831 15.1137C14.8875 15.4196 15.3822 15.4207 15.688 15.1164L19.7702 11.0539C19.7704 11.0536 19.7706 11.0534 19.7709 11.0531C20.0769 10.7477 20.0759 10.2515 19.7709 9.94711Z" fill="black"/>
</g>
<defs>
<clipPath id="clip0_1_343">
<rect width="20" height="20" fill="white" transform="translate(0 0.5)"/>
</clipPath>
</defs>
</svg>
